# xmcd
#
# Track frame offsets: 
#        150
#        16997
#        32615
#        51795
#        67700
#        82300
#        98550
#        122227
#        140740
#        156125
#        173960
#        187602
#        199720
#
# Disc length: 2845 seconds
#
# Revision: 9
# Processed by: cddbd v1.5.2PL0 Copyright (c) Steve Scherf et al.
# Submitted via: ExactAudioCopy v0.99pb5
#
DISCID=a50b1b0d
DTITLE=Various Artist - Dumb And Dumber
DYEAR=1994
DGENRE=Soundtrack
TTITLE0=Crash Test Dummies (Featuring Ellen Reid) - The Ballad Of Pete
TTITLE0=r Pumpkinhead
TTITLE1=Deadeye Dick - New Age Girl
TTITLE2=Echobelly - Insomniac
TTITLE3=Pete Droge - If You Don't Love Me (I'll Kill Myself)
TTITLE4=The Primitives - Crash - The '95 Mix
TTITLE5=Willi One Blood - Whiney, Whiney (What Really Drives Me Crazy)
TTITLE6=The Sons (Featuring Bret Reilly) - Too Much Of A Good Thing
TTITLE7=Deee-Lite - You Sexy Thing
TTITLE8=Gigolo Aunts - Where I Find My Heaven
TTITLE9=Butthole Surfers - Hurdy Gurdy Man
TTITLE10=The Lupins - Take
TTITLE11=Green Jelly - The Bear Song
TTITLE12=The Proclaimers - Get Ready
EXTD=
EXTT0=
EXTT1=
EXTT2=
EXTT3=
EXTT4=
EXTT5=
EXTT6=
EXTT7=
EXTT8=
EXTT9=
EXTT10=
EXTT11=
EXTT12=
PLAYORDER=
